<?xml version="1.0" encoding="UTF-8"?>
<svg id="b" data-name="Layer 2" xmlns="http://www.w3.org/2000/svg" xmlns:xlink="http://www.w3.org/1999/xlink" viewBox="0 0 377.07 120">
  <defs>
    <style>
      .e {
        fill: url(#d);
      }

      .f {
        fill: #5650a1;
      }

      .g {
        fill: #212121;
      }
    </style>
    <radialGradient id="d" cx="60" cy="60" fx="60" fy="60" r="69.25" gradientUnits="userSpaceOnUse">
      <stop offset="0" stop-color="#7f88c3"/>
      <stop offset=".65" stop-color="#564fa1"/>
      <stop offset="1" stop-color="#7f3f98"/>
    </radialGradient>
  </defs>
  <g id="c" data-name="Layer 1">
    <g>
      <path class="f" d="M149.75,79.51c-2.31,0-4.39-.43-6.24-1.28V27.03h15.49c7.47,0,13.21,1.49,17.22,4.47,4.01,2.98,6.02,7.23,6.02,12.75s-2.01,10.2-6.02,13.31c-4.01,3.11-9.73,4.66-17.14,4.66h-3.16v16.02c-1.8.85-3.86,1.28-6.17,1.28ZM155.92,36.35v16.84h4.89c6.02,0,9.02-2.86,9.02-8.57s-2.88-8.27-8.65-8.27h-5.26Z"/>
      <path class="f" d="M216.38,38.91c2.91,0,5.06.4,6.47,1.2l-12.78,40.98c-3.16,10.08-10.25,15.57-21.28,16.47-1.55-.75-2.33-2.28-2.33-4.59,0-1.5.35-2.76,1.05-3.76,3.71-.65,6.52-1.75,8.42-3.31,1.9-1.55,3.16-3.74,3.76-6.54-1.7-.2-3.31-.68-4.81-1.43l-11.58-37.82c1.4-.8,3.56-1.2,6.47-1.2s4.84.4,6.09,1.2l7.07,29.78,7.44-29.78c1.4-.8,3.41-1.2,6.02-1.2Z"/>
      <path class="f" d="M243.45,80.86c-6.82,0-12.21-.9-16.17-2.71V27.03h15.49c8.52,0,14.96,2.24,19.33,6.73,4.36,4.49,6.54,11.12,6.54,19.89s-2.23,15.14-6.69,20c-4.46,4.81-10.63,7.22-18.5,7.22ZM245.03,70.94c7.17,0,10.75-5.76,10.75-17.29,0-5.86-.85-10.09-2.56-12.67-1.71-2.58-4.44-3.87-8.2-3.87h-5.34v33.31c1.35.35,3.13.53,5.34.53Z"/>
      <path class="f" d="M320.52,53.27c0,8.57-2.08,15.32-6.24,20.23-4.16,4.91-9.93,7.37-17.29,7.37s-13.13-2.46-17.29-7.37c-4.16-4.91-6.24-11.66-6.24-20.23s2.08-15.24,6.24-20.15c4.21-4.96,9.98-7.44,17.29-7.44s13.11,2.48,17.22,7.44c4.21,4.91,6.32,11.63,6.32,20.15ZM296.99,35.45c-7.07,0-10.6,5.94-10.6,17.82s3.53,17.82,10.6,17.82,10.6-5.94,10.6-17.82-3.53-17.82-10.6-17.82Z"/>
      <path class="f" d="M333.31,79.51c-1.91,0-3.76-.43-5.56-1.28V27.78c2.26-.75,4.94-1.13,8.05-1.13s5.66.38,7.82,1.13l8.95,33.91,8.72-33.91c2.11-.75,4.69-1.13,7.75-1.13s5.79.38,8.05,1.13v50.46c-1.8.85-3.66,1.28-5.56,1.28s-3.71-.43-5.56-1.28v-18.05c.15-5.92.53-12.43,1.13-19.55h-.23l-9.17,33.84c-1.8.8-3.56,1.2-5.26,1.2-1.86,0-3.58-.4-5.19-1.2l-9.25-33.84h-.23c.5,5.71.88,12.23,1.13,19.55v18.05c-1.86.85-3.71,1.28-5.56,1.28Z"/>
    </g>
    <g>
      <circle class="g" cx="60" cy="60" r="10.12"/>
      <path class="e" d="M34.76,36.96L6.32,19.99,42.12,0l34.94,20.71.85,9.28-8.67,18.86-.02.02-2.25-11.22-20.2-9.21-12.02,8.52ZM71.15,69.22v.02s18.85,8.66,18.85,8.66l9.29-.85,20.71-34.94L100.01,6.31l-16.97,28.44,8.52,12.02-9.21,20.2-11.2,2.25ZM48.85,50.78v-.02s-18.85-8.66-18.85-8.66l-9.29.85L0,77.88l19.99,35.81,16.97-28.44-8.52-12.02,9.21-20.2,11.2-2.25ZM73.23,91.55l-20.2-9.21-2.25-11.22-.02.02-8.67,18.86.85,9.28,34.94,20.71,35.81-19.99-28.44-16.97-12.02,8.52Z"/>
    </g>
  </g>
</svg>